<svg aria-hidden="true" style="position:absolute;width:0;height:0;overflow:hidden" xmlns="http://www.w3.org/2000/svg">
  <defs>
    <symbol id="icon-user" viewBox="0 0 30 32">
      <path fill="#fff" style="fill:var(--color1, #fff)" d="M21.096 20.303a6.687 6.687 0 0 1 3.122-.765h.004c.115 0 .169-.135.084-.21a14.33 14.33 0 0 0-3.977-2.468c-.015-.008-.031-.011-.046-.019 2.381-1.691 3.931-4.44 3.931-7.541 0-5.138-4.249-9.3-9.491-9.3S5.235 4.162 5.235 9.3c0 3.101 1.549 5.85 3.935 7.541-.015.008-.031.011-.046.019a14.31 14.31 0 0 0-4.575 3.023 13.987 13.987 0 0 0-3.083 4.481 13.728 13.728 0 0 0-1.127 5.179.292.292 0 0 0 .087.217.32.32 0 0 0 .219.091h2.297a.306.306 0 0 0 .307-.292c.077-2.895 1.262-5.606 3.359-7.661 2.167-2.126 5.051-3.296 8.118-3.296 2.174 0 4.261.589 6.059 1.691a.318.318 0 0 0 .311.011zm-6.37-4.553a6.62 6.62 0 0 1-4.656-1.89c-.613-.598-1.099-1.309-1.43-2.092s-.501-1.622-.499-2.468c0-1.721.686-3.341 1.929-4.56s2.895-1.89 4.656-1.89c1.76 0 3.409.671 4.656 1.89.613.598 1.099 1.309 1.43 2.092s.5 1.622.499 2.468a6.352 6.352 0 0 1-1.929 4.56 6.616 6.616 0 0 1-4.656 1.89zm14.105 8.925H25.61v-3.15c0-.165-.138-.3-.307-.3h-2.148a.304.304 0 0 0-.307.3v3.15h-3.221a.304.304 0 0 0-.307.3v2.1c0 .165.138.3.307.3h3.221v3.15c0 .165.138.3.307.3h2.148a.304.304 0 0 0 .307-.3v-3.15h3.221a.304.304 0 0 0 .307-.3v-2.1c0-.165-.138-.3-.307-.3z"/>
    </symbol>
    <symbol id="icon-search" viewBox="0 0 32 32">
      <path fill="none" stroke="#fff" style="stroke:var(--color1, #fff)" stroke-linejoin="round" stroke-linecap="round" stroke-width="3.2" d="M30.4 30.4v0zM24 12.8a11.183 11.183 0 0 1-3.28 7.919 11.21 11.21 0 0 1-7.919 3.28A11.203 11.203 0 0 1 1.6 12.8 11.196 11.196 0 0 1 12.8 1.6 11.196 11.196 0 0 1 24 12.8z"/>
    </symbol>
    <symbol id="icon-bell" viewBox="0 0 29 32">
      <path fill="#fff" style="fill:var(--color1, #fff)" d="M13.289 31.357c.56-.014 1.097-.237 1.517-.63s.695-.931.776-1.518h-4.676c.084.603.372 1.154.81 1.549s.997.608 1.572.599z"/>
      <path fill="none" stroke="#fff" style="stroke:var(--color1, #fff)" stroke-width="1.333" d="M13.289 31.357c.56-.014 1.097-.237 1.517-.63s.695-.931.776-1.518h-4.676c.084.603.372 1.154.81 1.549s.997.608 1.572.599z"/>
      <path fill="#fff" style="fill:var(--color1, #fff)" d="M26.362 24.553a13.098 13.098 0 0 1-2.246-2.679 11.746 11.746 0 0 1-1.208-4.398v-4.517a10.203 10.203 0 0 0-.143-1.637 6.567 6.567 0 0 1-2.004-.768c.237.782.358 1.595.358 2.414v4.517a13.23 13.23 0 0 0 1.477 5.349c.618 1 1.351 1.921 2.183 2.743H1.862a14.69 14.69 0 0 0 2.183-2.743 13.229 13.229 0 0 0 1.476-5.349v-4.526c-.005-1.058.195-2.107.587-3.086s.97-1.87 1.7-2.621c.73-.751 1.597-1.347 2.553-1.755s1.981-.619 3.016-.621a7.58 7.58 0 0 1 4.259 1.317 7.025 7.025 0 0 1-.233-1.6v-.576a9.286 9.286 0 0 0-2.971-.914V1.951c0-.324-.126-.634-.35-.863S13.554.73 13.237.73c-.317 0-.621.129-.845.358s-.35.539-.35.863v1.198c-2.313.333-4.429 1.51-5.959 3.313s-2.369 4.111-2.364 6.497v4.517a11.746 11.746 0 0 1-1.208 4.398 13.1 13.1 0 0 1-2.21 2.679.916.916 0 0 0-.304.685v1.244c0 .242.094.475.262.647s.395.268.633.268h24.877c.237 0 .465-.096.633-.268s.262-.404.262-.647v-1.244a.917.917 0 0 0-.304-.685z"/>
      <path style="fill:var(--color2, #000)" d="M23.955 9.422c2.455 0 4.444-2.109 4.444-4.711S26.409 0 23.955 0c-2.455 0-4.444 2.109-4.444 4.711s1.99 4.711 4.444 4.711z"/>
      <path fill="blue" stroke="#fff" style="stroke:var(--color1, #fff)" stroke-width="1.333" d="M23.955 9.422c2.455 0 4.444-2.109 4.444-4.711S26.409 0 23.955 0c-2.455 0-4.444 2.109-4.444 4.711s1.99 4.711 4.444 4.711z"/>
    </symbol>
    <symbol id="icon-burger" viewBox="0 0 32 32">
<path d="M4.799 8.001c0-0.424 0.169-0.831 0.469-1.131s0.707-0.469 1.131-0.469h19.2c0.424 0 0.831 0.169 1.131 0.469s0.469 0.707 0.469 1.131-0.169 0.831-0.469 1.131c-0.3 0.3-0.707 0.469-1.131 0.469h-19.2c-0.424 0-0.831-0.169-1.131-0.469s-0.469-0.707-0.469-1.131z"></path>
<path d="M4.799 16.001c0-0.424 0.169-0.831 0.469-1.131s0.707-0.469 1.131-0.469h19.2c0.424 0 0.831 0.169 1.131 0.469s0.469 0.707 0.469 1.131c0 0.424-0.169 0.831-0.469 1.131s-0.707 0.469-1.131 0.469h-19.2c-0.424 0-0.831-0.169-1.131-0.469s-0.469-0.707-0.469-1.131z"></path>
<path d="M4.799 24.001c0-0.424 0.169-0.831 0.469-1.131s0.707-0.469 1.131-0.469h19.2c0.424 0 0.831 0.169 1.131 0.469s0.469 0.707 0.469 1.131c0 0.424-0.169 0.831-0.469 1.131s-0.707 0.469-1.131 0.469h-19.2c-0.424 0-0.831-0.169-1.131-0.469s-0.469-0.707-0.469-1.131z"></path>
</symbol>
  </defs>
</svg>
