<svg aria-hidden="true" style="position:absolute;width:0;height:0;overflow:hidden" xmlns="http://www.w3.org/2000/svg">
  <defs>
    <symbol id="icon-logo" viewBox="0 0 32 32">
      <path fill="#156963" style="fill:var(--color1, #156963)" d="M13.778 1.283a4.443 4.443 0 0 1 4.444 0l9.412 5.434a4.444 4.444 0 0 1 2.222 3.849v10.868a4.444 4.444 0 0 1-2.222 3.849l-9.412 5.434a4.443 4.443 0 0 1-4.444 0l-9.412-5.434a4.444 4.444 0 0 1-2.222-3.849V10.566c0-1.588.847-3.055 2.222-3.849l9.412-5.434z"/>
      <path fill="#fff" style="fill:var(--color2, #fff)" d="M14.488 19.62c-.299 0-.537-.085-.715-.256-.171-.178-.256-.416-.256-.715v-5.707c0-.292.078-.516.235-.672s.38-.235.672-.235h2.731c.832 0 1.479.213 1.941.64.462.42.693 1.006.693 1.76 0 .747-.235 1.333-.704 1.76-.462.427-1.106.64-1.931.64h-1.675v1.813c0 .299-.089.537-.267.715-.178.171-.42.256-.725.256zm2.4-4.256c.363 0 .629-.075.8-.224.178-.149.267-.38.267-.693 0-.619-.356-.928-1.067-.928H15.48v1.845h1.408z"/>
    </symbol>
    <symbol id="icon-plant" viewBox="0 0 32 32">
      <path fill="#156963" style="fill:var(--color1, #156963)" d="M12.865 4.588C10.069 1.794 4.599 1.47.726 1.47a.727.727 0 0 0-.727.726c0 3.872.323 9.343 3.118 12.139 1.18 1.18 2.989 1.707 4.782 1.707 1.949 0 3.88-.623 4.965-1.709 2.082-2.082 2.464-7.283 0-9.745zm-1.027 8.72c-1.555 1.553-5.872 1.819-7.691 0C1.89 11.051 1.5 6.467 1.457 2.928c3.54.042 8.124.433 10.38 2.69 1.819 1.819 1.553 6.138 0 7.691zM31.274 4.344c-3.872 0-9.343.323-12.139 3.118-2.464 2.463-2.082 7.663 0 9.745 1.085 1.084 3.015 1.707 4.964 1.707 1.793 0 3.601-.526 4.783-1.706C31.676 14.412 32 8.942 32 5.069a.727.727 0 0 0-.726-.727zM27.852 16.18c-1.819 1.819-6.138 1.553-7.691 0s-1.819-5.872 0-7.691c2.257-2.257 6.841-2.647 10.38-2.69-.042 3.541-.433 8.125-2.69 10.38z"/>
      <path fill="#156963" style="fill:var(--color1, #156963)" d="M26.026 10.633c-.171-.365-.663-.49-1.024-.321-5.572 2.62-8.31 7.188-9.554 11.884-1.539-9.985-5.989-13.029-7.877-14.321-.235-.161-.418-.279-.52-.379a.727.727 0 0 0-1.027 1.027c.144.142.392.321.728.551 2.127 1.454 7.778 5.321 7.778 20.73a.727.727 0 0 0 1.454.002c0-6.226 1.672-14.434 9.638-18.177l.118-.057c.362-.171.459-.575.288-.939z"/>
    </symbol>
    <symbol id="icon-headphones" viewBox="0 0 32 32">
      <path fill="#156963" style="fill:var(--color1, #156963)" d="M16 0C8.246 0 1.937 6.308 1.937 14.063v7.625a2.816 2.816 0 0 0 2.813 2.813h1.099A2.817 2.817 0 0 0 8.5 26.376a2.816 2.816 0 0 0 2.813-2.812v-7.625A2.815 2.815 0 0 0 8.5 13.127a2.817 2.817 0 0 0-2.651 1.875H4.75c-.329 0-.644.057-.938.161v-1.099C3.812 7.344 9.279 1.876 16 1.876s12.187 5.467 12.187 12.188v1.099a2.799 2.799 0 0 0-.937-.161h-1.099a2.817 2.817 0 0 0-2.651-1.875 2.816 2.816 0 0 0-2.813 2.812v7.625a2.815 2.815 0 0 0 3.629 2.691 2.817 2.817 0 0 1-2.691 1.996h-2.974A2.817 2.817 0 0 0 16 26.376c-1.551 0-2.813 1.262-2.813 2.812s1.262 2.813 2.813 2.813a2.817 2.817 0 0 0 2.651-1.875h2.974a4.693 4.693 0 0 0 4.688-4.688v-.937h.937a2.816 2.816 0 0 0 2.813-2.813v-7.625C30.063 6.309 23.755 0 16 0zM7.563 15.937c0-.517.421-.937.937-.937s.937.421.937.937v7.625c0 .517-.421.937-.937.937s-.937-.421-.937-.937v-7.625zm-2.813.938h.938v5.75H4.75a.94.94 0 0 1-.938-.938v-3.875a.94.94 0 0 1 .938-.938zM16 30.125a.938.938 0 0 1 0-1.875c.516 0 .937.421.937.937a.94.94 0 0 1-.937.938zm8.437-6.562c0 .517-.421.937-.937.937s-.937-.421-.937-.937v-7.625c0-.517.421-.937.937-.937s.937.421.937.937v7.625zm3.75-1.876a.94.94 0 0 1-.937.938h-.937v-5.75h.937c.517 0 .937.421.937.938v3.875z"/>
    </symbol>
    <symbol id="icon-car" viewBox="0 0 32 32">
      <path fill="#156963" style="fill:var(--color1, #156963)" d="M8.667 25.333H6a.667.667 0 0 1 0-1.334h2.667a.667.667 0 0 1 0 1.334zM30.333 25.333h-1.667a.667.667 0 0 1 0-1.334h1.113l.899-4.789c-.012-2.451-2.105-4.544-4.679-4.544h-4.377l-2.121 9.333h3.832a.667.667 0 0 1 0 1.334h-4.667a.664.664 0 0 1-.65-.814l2.424-10.667a.667.667 0 0 1 .651-.52H26c3.308 0 6 2.692 6 6l-1.012 5.456a.665.665 0 0 1-.655.544z"/>
      <path fill="#156963" style="fill:var(--color1, #156963)" d="M26 28c-1.837 0-3.333-1.495-3.333-3.333s1.496-3.333 3.333-3.333c1.837 0 3.333 1.495 3.333 3.333S27.837 28 26 28zm0-5.333c-1.103 0-2 .897-2 2s.897 2 2 2 2-.897 2-2-.897-2-2-2zM11.333 28C9.496 28 8 26.505 8 24.667s1.496-3.333 3.333-3.333c1.837 0 3.333 1.495 3.333 3.333S13.17 28 11.333 28zm0-5.333c-1.103 0-2 .897-2 2s.897 2 2 2 2-.897 2-2-.897-2-2-2zM8.667 13.333H3.334a.667.667 0 0 1 0-1.334h5.333a.667.667 0 0 1 0 1.334zM8.667 17.333H2a.667.667 0 0 1 0-1.334h6.667a.667.667 0 0 1 0 1.334zM8.667 21.333h-8a.667.667 0 0 1 0-1.334h8a.667.667 0 0 1 0 1.334z"/>
      <path fill="#156963" style="fill:var(--color1, #156963)" d="M18.667 25.333H14a.667.667 0 0 1 0-1.334h4.135l3.029-13.333H6a.667.667 0 0 1 0-1.334h16a.664.664 0 0 1 .65.814l-3.333 14.667a.667.667 0 0 1-.651.52z"/>
    </symbol>
    <symbol id="icon-dollar" viewBox="0 0 32 32">
      <path fill="#156963" style="fill:var(--color1, #156963)" d="M16 32c8.823 0 16-7.177 16-16a15.906 15.906 0 0 0-1.231-6.164.632.632 0 1 0-1.168.489 14.63 14.63 0 0 1 1.133 5.676c0 8.125-6.61 14.734-14.734 14.734S1.266 24.125 1.266 16.001C1.266 7.876 7.876 1.267 16 1.267a14.692 14.692 0 0 1 4.85.817.632.632 0 1 0 .417-1.195A15.952 15.952 0 0 0 16 .001c-8.823 0-16 7.177-16 16s7.177 16 16 16z"/>
      <path fill="#156963" style="fill:var(--color1, #156963)" d="M22.273 4.115a.633.633 0 0 0-.895.895l2.945 2.945a.633.633 0 0 0 .885.01l5.191-4.958a.633.633 0 1 0-.874-.915l-4.744 4.531-2.507-2.507zM16 9.88a2.71 2.71 0 0 1 2.706 2.706.632.632 0 1 0 1.266 0 3.978 3.978 0 0 0-3.339-3.921V7.412a.632.632 0 1 0-1.266 0v1.253A3.971 3.971 0 0 0 16 16.557a2.706 2.706 0 0 1 .032 5.411l-.031-.002a2.708 2.708 0 0 1-2.705-2.703.632.632 0 1 0-1.266 0 3.978 3.978 0 0 0 3.339 3.921v1.405a.632.632 0 1 0 1.266 0v-1.405a3.97 3.97 0 0 0-.633-7.892 2.706 2.706 0 1 1 0-5.412z"/>
    </symbol>
    <symbol id="icon-arrow-left" viewBox="0 0 32 32">
      <path d="M25.333 14.667H9.52l4.84-5.813a1.338 1.338 0 0 0-.173-1.88 1.338 1.338 0 0 0-1.88.173l-6.667 8c-.045.064-.085.13-.12.2 0 .067 0 .107-.093.173-.06.153-.092.316-.093.48.001.164.033.327.093.48 0 .067 0 .107.093.173.035.07.075.136.12.2l6.667 8a1.322 1.322 0 0 0 1.027.48 1.329 1.329 0 0 0 1.329-1.211c.016-.175-.002-.351-.055-.518s-.137-.323-.249-.458l-4.84-5.813h15.813a1.333 1.333 0 1 0 0-2.667z"/>
    </symbol>
    <symbol id="icon-arrow-right" viewBox="0 0 32 32">
      <path d="M6.667 17.333H22.48l-4.84 5.813a1.338 1.338 0 0 0 .173 1.88 1.338 1.338 0 0 0 1.88-.173l6.667-8c.045-.064.085-.131.12-.2 0-.067 0-.107.093-.173.06-.153.092-.316.093-.48a1.339 1.339 0 0 0-.093-.48c0-.067 0-.107-.093-.173a1.629 1.629 0 0 0-.12-.2l-6.667-8a1.339 1.339 0 0 0-2.357.733 1.334 1.334 0 0 0 .304.976l4.84 5.813H6.667a1.333 1.333 0 1 0 0 2.667z"/>
    </symbol>
    <symbol id="icon-shopping-cart" viewBox="0 0 32 32">
      <path stroke-linejoin="round" stroke-linecap="round" stroke-width="3.2" d="M12 29.333a1.333 1.333 0 1 0 0-2.667 1.333 1.333 0 0 0 0 2.667zM26.667 29.333a1.333 1.333 0 1 0 0-2.667 1.333 1.333 0 0 0 0 2.667zM1.333 1.333h5.333l3.573 17.853a2.671 2.671 0 0 0 2.666 2.147h12.96a2.661 2.661 0 0 0 2.666-2.147l2.133-11.187H7.997"/>
    </symbol>
    <symbol id="icon-search" viewBox="0 0 32 32">
      <path stroke-linejoin="round" stroke-linecap="round" stroke-width="3.2" d="M14.667 25.333c5.891 0 10.667-4.776 10.667-10.667S20.558 3.999 14.667 3.999 4 8.775 4 14.666s4.776 10.667 10.667 10.667zM28 28l-5.8-5.8"/>
    </symbol>
  </defs>
</svg>
